<?xml version="1.0" encoding="UTF-8" standalone="no"?>
<svg width="59px" height="59px" viewBox="0 0 59 59" version="1.1" xmlns="http://www.w3.org/2000/svg" xmlns:xlink="http://www.w3.org/1999/xlink" xmlns:sketch="http://www.bohemiancoding.com/sketch/ns">
    <!-- Generator: Sketch 3.5.1 (25234) - http://www.bohemiancoding.com/sketch -->
    <title>user</title>
    <desc>Created with Sketch.</desc>
    <defs></defs>
    <g id="Page-1" stroke="none" stroke-width="1" fill="none" fill-rule="evenodd" sketch:type="MSPage">
        <g id="user" sketch:type="MSLayerGroup" transform="translate(2.000000, 2.000000)">
            <circle id="Oval-1" stroke="#000000" stroke-width="3" sketch:type="MSShapeGroup" cx="27.5" cy="27.5" r="27.5"></circle>
            <path d="M34.8542536,34.7898257 C40.185796,35.5015029 43.7524141,38.5854373 44.45103,39.7037872 C45.7747233,41.77104 45.6644155,46.5833333 45.6644155,46.5833333 L9.00546511,46.5833333 C9.00546511,46.5833333 8.82161882,41.4660355 10.5865432,39.3987827 C11.5793132,38.5176586 14.7047001,35.5015029 20.0362426,34.7559363 C25.3310157,34.0442591 23.7131684,28.6219567 23.8970147,28.6897355 C24.080861,28.7914037 23.8602454,27.5374962 23.8602454,27.5374962 C23.8602454,27.5374962 19.9994733,24.1146679 20.0362426,21.0307334 C20.1097811,17.9129095 20.0362426,16.3201082 20.0362426,16.3201082 C20.0362426,16.3201082 20.6613199,9 26.1031702,9 L29.1550186,10.3555756 C34.0453299,10.3555756 34.8542536,16.3201082 34.8542536,16.3201082 L34.8542536,21.4712955 C34.8542536,21.4712955 34.2291762,25.8430268 31.1773278,27.4358281 C31.1773278,27.4358281 30.9567122,28.6897355 31.1405585,28.5880673 C31.3244048,28.5202885 29.5594804,34.0442591 34.8542536,34.7898257 L34.8542536,34.7898257 Z" id="Shape" fill="#252424" sketch:type="MSShapeGroup"></path>
        </g>
    </g>
</svg>